<mxfile host="app.diagrams.net" modified="2024-01-21T16:37:22.588Z" agent="Mozilla/5.0 (Windows NT 10.0; Win64; x64) AppleWebKit/537.36 (KHTML, like Gecko) Chrome/120.0.0.0 Safari/537.36 OPR/106.0.0.0" etag="bHJ9OZugWCzwNdlH5T_E" version="22.1.21" type="github">
  <diagram name="Strona-1" id="c1WolfunPiuhHcppAbLj">
    <mxGraphModel dx="1009" dy="573" grid="1" gridSize="10" guides="1" tooltips="1" connect="1" arrows="1" fold="1" page="1" pageScale="1" pageWidth="827" pageHeight="1169" math="0" shadow="0">
      <root>
        <mxCell id="0" />
        <mxCell id="1" parent="0" />
        <mxCell id="wUuLlDS5kyowMpqrPuQQ-1" value="" style="ellipse;whiteSpace=wrap;html=1;" parent="1" vertex="1">
          <mxGeometry x="300" y="50" width="150" height="90" as="geometry" />
        </mxCell>
        <mxCell id="wUuLlDS5kyowMpqrPuQQ-2" value="Start" style="text;strokeColor=none;align=center;fillColor=none;html=1;verticalAlign=middle;whiteSpace=wrap;rounded=0;strokeWidth=0;fontSize=22;" parent="1" vertex="1">
          <mxGeometry x="315" y="80" width="120" height="30" as="geometry" />
        </mxCell>
        <mxCell id="wUuLlDS5kyowMpqrPuQQ-4" value="" style="rounded=0;whiteSpace=wrap;html=1;" parent="1" vertex="1">
          <mxGeometry x="315" y="280" width="120" height="30" as="geometry" />
        </mxCell>
        <mxCell id="wUuLlDS5kyowMpqrPuQQ-5" value="int result = 1" style="text;html=1;strokeColor=none;fillColor=none;align=center;verticalAlign=middle;whiteSpace=wrap;rounded=0;fontSize=15;" parent="1" vertex="1">
          <mxGeometry x="320" y="280" width="110" height="30" as="geometry" />
        </mxCell>
        <mxCell id="wUuLlDS5kyowMpqrPuQQ-6" value="" style="endArrow=classic;html=1;rounded=0;exitX=0.5;exitY=1;exitDx=0;exitDy=0;" parent="1" source="wUuLlDS5kyowMpqrPuQQ-1" edge="1">
          <mxGeometry width="50" height="50" relative="1" as="geometry">
            <mxPoint x="390" y="320" as="sourcePoint" />
            <mxPoint x="375" y="180" as="targetPoint" />
          </mxGeometry>
        </mxCell>
        <mxCell id="wUuLlDS5kyowMpqrPuQQ-7" value="" style="endArrow=classic;html=1;rounded=0;exitX=0.5;exitY=1;exitDx=0;exitDy=0;" parent="1" source="wUuLlDS5kyowMpqrPuQQ-4" edge="1">
          <mxGeometry width="50" height="50" relative="1" as="geometry">
            <mxPoint x="390" y="390" as="sourcePoint" />
            <mxPoint x="375" y="350" as="targetPoint" />
          </mxGeometry>
        </mxCell>
        <mxCell id="wUuLlDS5kyowMpqrPuQQ-8" value="" style="rhombus;whiteSpace=wrap;html=1;" parent="1" vertex="1">
          <mxGeometry x="335" y="350" width="80" height="80" as="geometry" />
        </mxCell>
        <mxCell id="wUuLlDS5kyowMpqrPuQQ-9" value="power &amp;gt; 0" style="text;html=1;strokeColor=none;fillColor=none;align=center;verticalAlign=middle;whiteSpace=wrap;rounded=0;" parent="1" vertex="1">
          <mxGeometry x="345" y="375" width="60" height="30" as="geometry" />
        </mxCell>
        <mxCell id="wUuLlDS5kyowMpqrPuQQ-11" value="" style="endArrow=none;html=1;rounded=0;" parent="1" edge="1">
          <mxGeometry width="50" height="50" relative="1" as="geometry">
            <mxPoint x="415" y="390" as="sourcePoint" />
            <mxPoint x="460" y="390" as="targetPoint" />
          </mxGeometry>
        </mxCell>
        <mxCell id="wUuLlDS5kyowMpqrPuQQ-12" value="" style="endArrow=none;html=1;rounded=0;" parent="1" edge="1">
          <mxGeometry width="50" height="50" relative="1" as="geometry">
            <mxPoint x="300" y="390" as="sourcePoint" />
            <mxPoint x="335" y="390" as="targetPoint" />
          </mxGeometry>
        </mxCell>
        <mxCell id="wUuLlDS5kyowMpqrPuQQ-14" value="" style="endArrow=classic;html=1;rounded=0;" parent="1" edge="1">
          <mxGeometry width="50" height="50" relative="1" as="geometry">
            <mxPoint x="300" y="390" as="sourcePoint" />
            <mxPoint x="300" y="460" as="targetPoint" />
          </mxGeometry>
        </mxCell>
        <mxCell id="wUuLlDS5kyowMpqrPuQQ-15" value="" style="rounded=0;whiteSpace=wrap;html=1;" parent="1" vertex="1">
          <mxGeometry x="260" y="460" width="80" height="30" as="geometry" />
        </mxCell>
        <mxCell id="wUuLlDS5kyowMpqrPuQQ-16" value="return result" style="text;html=1;strokeColor=none;fillColor=none;align=center;verticalAlign=middle;whiteSpace=wrap;rounded=0;" parent="1" vertex="1">
          <mxGeometry x="260" y="460" width="80" height="30" as="geometry" />
        </mxCell>
        <mxCell id="wUuLlDS5kyowMpqrPuQQ-17" value="" style="shape=parallelogram;perimeter=parallelogramPerimeter;whiteSpace=wrap;html=1;fixedSize=1;" parent="1" vertex="1">
          <mxGeometry x="310" y="180" width="120" height="60" as="geometry" />
        </mxCell>
        <mxCell id="wUuLlDS5kyowMpqrPuQQ-18" value="&lt;font style=&quot;font-size: 15px;&quot;&gt;Input power&lt;br&gt;Input base&lt;/font&gt;" style="text;html=1;strokeColor=none;fillColor=none;align=center;verticalAlign=middle;whiteSpace=wrap;rounded=0;" parent="1" vertex="1">
          <mxGeometry x="324" y="180" width="90" height="60" as="geometry" />
        </mxCell>
        <mxCell id="wUuLlDS5kyowMpqrPuQQ-19" value="" style="endArrow=classic;html=1;rounded=0;entryX=0.411;entryY=-0.147;entryDx=0;entryDy=0;entryPerimeter=0;" parent="1" target="wUuLlDS5kyowMpqrPuQQ-5" edge="1">
          <mxGeometry width="50" height="50" relative="1" as="geometry">
            <mxPoint x="364" y="240" as="sourcePoint" />
            <mxPoint x="414" y="190" as="targetPoint" />
          </mxGeometry>
        </mxCell>
        <mxCell id="wUuLlDS5kyowMpqrPuQQ-20" value="" style="endArrow=classic;html=1;rounded=0;" parent="1" edge="1">
          <mxGeometry width="50" height="50" relative="1" as="geometry">
            <mxPoint x="460" y="390" as="sourcePoint" />
            <mxPoint x="460" y="460" as="targetPoint" />
          </mxGeometry>
        </mxCell>
        <mxCell id="wUuLlDS5kyowMpqrPuQQ-21" value="" style="rhombus;whiteSpace=wrap;html=1;" parent="1" vertex="1">
          <mxGeometry x="405" y="460" width="110" height="100" as="geometry" />
        </mxCell>
        <mxCell id="wUuLlDS5kyowMpqrPuQQ-22" value="power % 2 ==0" style="text;html=1;strokeColor=none;fillColor=none;align=center;verticalAlign=middle;whiteSpace=wrap;rounded=0;" parent="1" vertex="1">
          <mxGeometry x="414" y="495" width="90" height="30" as="geometry" />
        </mxCell>
        <mxCell id="wUuLlDS5kyowMpqrPuQQ-24" value="" style="endArrow=none;html=1;rounded=0;" parent="1" edge="1">
          <mxGeometry width="50" height="50" relative="1" as="geometry">
            <mxPoint x="370" y="510" as="sourcePoint" />
            <mxPoint x="405" y="510" as="targetPoint" />
          </mxGeometry>
        </mxCell>
        <mxCell id="wUuLlDS5kyowMpqrPuQQ-25" value="" style="endArrow=none;html=1;rounded=0;" parent="1" edge="1">
          <mxGeometry width="50" height="50" relative="1" as="geometry">
            <mxPoint x="515" y="510" as="sourcePoint" />
            <mxPoint x="550" y="510" as="targetPoint" />
          </mxGeometry>
        </mxCell>
        <mxCell id="wUuLlDS5kyowMpqrPuQQ-26" value="" style="endArrow=classic;html=1;rounded=0;" parent="1" edge="1">
          <mxGeometry width="50" height="50" relative="1" as="geometry">
            <mxPoint x="550" y="510" as="sourcePoint" />
            <mxPoint x="550" y="580" as="targetPoint" />
          </mxGeometry>
        </mxCell>
        <mxCell id="wUuLlDS5kyowMpqrPuQQ-27" value="" style="endArrow=classic;html=1;rounded=0;" parent="1" edge="1">
          <mxGeometry width="50" height="50" relative="1" as="geometry">
            <mxPoint x="370" y="510" as="sourcePoint" />
            <mxPoint x="370" y="580" as="targetPoint" />
          </mxGeometry>
        </mxCell>
        <mxCell id="wUuLlDS5kyowMpqrPuQQ-28" value="" style="rounded=0;whiteSpace=wrap;html=1;" parent="1" vertex="1">
          <mxGeometry x="490" y="580" width="140" height="40" as="geometry" />
        </mxCell>
        <mxCell id="wUuLlDS5kyowMpqrPuQQ-29" value="" style="rounded=0;whiteSpace=wrap;html=1;" parent="1" vertex="1">
          <mxGeometry x="300" y="580" width="130" height="70" as="geometry" />
        </mxCell>
        <mxCell id="wUuLlDS5kyowMpqrPuQQ-30" value="&lt;pre style=&quot;box-sizing: border-box; font-family: monospace, monospace; margin-top: 0px; margin-bottom: 0px; color: rgb(66, 66, 66); font-weight: 600; text-align: left;&quot;&gt;&lt;code style=&quot;box-sizing: border-box; font-family: monospace, monospace; font-size: 1em;&quot; data-lang=&quot;python&quot; class=&quot;language-python&quot;&gt;power &lt;span style=&quot;box-sizing: border-box;&quot; class=&quot;o&quot;&gt;=&lt;/span&gt; &lt;span style=&quot;box-sizing: border-box;&quot; class=&quot;n&quot;&gt;power&lt;/span&gt; &lt;span style=&quot;box-sizing: border-box;&quot; class=&quot;o&quot;&gt;//&lt;/span&gt; &lt;span style=&quot;box-sizing: border-box; color: rgb(0, 153, 153);&quot; class=&quot;mi&quot;&gt;2&lt;/span&gt;&lt;span style=&quot;box-sizing: border-box; font-style: italic; color: rgb(153, 153, 136);&quot; class=&quot;c1&quot;&gt;&lt;br/&gt;&lt;/span&gt;&lt;span style=&quot;box-sizing: border-box;&quot; class=&quot;n&quot;&gt;base&lt;/span&gt; &lt;span style=&quot;box-sizing: border-box;&quot; class=&quot;o&quot;&gt;=&lt;/span&gt; &lt;span style=&quot;box-sizing: border-box;&quot; class=&quot;n&quot;&gt;base&lt;/span&gt; &lt;span style=&quot;box-sizing: border-box;&quot; class=&quot;o&quot;&gt;*&lt;/span&gt; &lt;span style=&quot;box-sizing: border-box;&quot; class=&quot;n&quot;&gt;base&lt;/span&gt;&lt;/code&gt;&lt;/pre&gt;" style="text;html=1;strokeColor=none;fillColor=none;align=center;verticalAlign=middle;whiteSpace=wrap;rounded=0;" parent="1" vertex="1">
          <mxGeometry x="490" y="560" width="140" height="75" as="geometry" />
        </mxCell>
        <mxCell id="wUuLlDS5kyowMpqrPuQQ-31" value="&lt;div&gt;power = power - 1&lt;/div&gt;&lt;div&gt;result = result * base&lt;/div&gt;&lt;div&gt;power = power // 2&lt;/div&gt;&lt;div&gt;base = base * base&lt;/div&gt;" style="text;html=1;strokeColor=none;fillColor=none;align=center;verticalAlign=middle;whiteSpace=wrap;rounded=0;" parent="1" vertex="1">
          <mxGeometry x="292.5" y="575" width="145" height="80" as="geometry" />
        </mxCell>
        <mxCell id="wUuLlDS5kyowMpqrPuQQ-32" value="" style="endArrow=none;html=1;rounded=0;" parent="1" edge="1">
          <mxGeometry width="50" height="50" relative="1" as="geometry">
            <mxPoint x="550" y="660" as="sourcePoint" />
            <mxPoint x="550" y="620" as="targetPoint" />
          </mxGeometry>
        </mxCell>
        <mxCell id="wUuLlDS5kyowMpqrPuQQ-33" value="" style="endArrow=none;html=1;rounded=0;" parent="1" edge="1">
          <mxGeometry width="50" height="50" relative="1" as="geometry">
            <mxPoint x="550" y="660" as="sourcePoint" />
            <mxPoint x="680" y="660" as="targetPoint" />
          </mxGeometry>
        </mxCell>
        <mxCell id="wUuLlDS5kyowMpqrPuQQ-34" value="" style="endArrow=none;html=1;rounded=0;" parent="1" edge="1">
          <mxGeometry width="50" height="50" relative="1" as="geometry">
            <mxPoint x="680" y="660" as="sourcePoint" />
            <mxPoint x="680" y="330" as="targetPoint" />
          </mxGeometry>
        </mxCell>
        <mxCell id="wUuLlDS5kyowMpqrPuQQ-35" value="" style="endArrow=classic;html=1;rounded=0;" parent="1" edge="1">
          <mxGeometry width="50" height="50" relative="1" as="geometry">
            <mxPoint x="680" y="330" as="sourcePoint" />
            <mxPoint x="380" y="330" as="targetPoint" />
          </mxGeometry>
        </mxCell>
        <mxCell id="wUuLlDS5kyowMpqrPuQQ-36" value="" style="endArrow=none;html=1;rounded=0;" parent="1" edge="1">
          <mxGeometry width="50" height="50" relative="1" as="geometry">
            <mxPoint x="370" y="690" as="sourcePoint" />
            <mxPoint x="370" y="650" as="targetPoint" />
          </mxGeometry>
        </mxCell>
        <mxCell id="wUuLlDS5kyowMpqrPuQQ-37" value="" style="endArrow=none;html=1;rounded=0;" parent="1" edge="1">
          <mxGeometry width="50" height="50" relative="1" as="geometry">
            <mxPoint x="370" y="690" as="sourcePoint" />
            <mxPoint x="630" y="690" as="targetPoint" />
          </mxGeometry>
        </mxCell>
        <mxCell id="wUuLlDS5kyowMpqrPuQQ-38" value="" style="endArrow=classic;html=1;rounded=0;" parent="1" edge="1">
          <mxGeometry width="50" height="50" relative="1" as="geometry">
            <mxPoint x="630" y="690" as="sourcePoint" />
            <mxPoint x="630" y="660" as="targetPoint" />
          </mxGeometry>
        </mxCell>
        <mxCell id="wUuLlDS5kyowMpqrPuQQ-39" value="" style="endArrow=classic;html=1;rounded=0;" parent="1" edge="1">
          <mxGeometry width="50" height="50" relative="1" as="geometry">
            <mxPoint x="300" y="490" as="sourcePoint" />
            <mxPoint x="300" y="520" as="targetPoint" />
          </mxGeometry>
        </mxCell>
        <mxCell id="wUuLlDS5kyowMpqrPuQQ-40" value="" style="ellipse;whiteSpace=wrap;html=1;" parent="1" vertex="1">
          <mxGeometry x="255" y="520" width="90" height="40" as="geometry" />
        </mxCell>
        <mxCell id="wUuLlDS5kyowMpqrPuQQ-41" value="Koniec" style="text;html=1;strokeColor=none;fillColor=none;align=center;verticalAlign=middle;whiteSpace=wrap;rounded=0;" parent="1" vertex="1">
          <mxGeometry x="270" y="525" width="60" height="30" as="geometry" />
        </mxCell>
      </root>
    </mxGraphModel>
  </diagram>
</mxfile>
